<svg width="32" height="32" viewBox="0 0 32 32" fill="none" xmlns="http://www.w3.org/2000/svg">
  <circle cx="16" cy="16" r="16" fill="#25D366"/>
  <path d="M10.9 23.4L11.8 20.1C10.5 18.6 9.8 16.7 9.8 14.7C9.8 10.5 13.1 7.2 17.3 7.2C21.4 7.2 24.8 10.5 24.8 14.7C24.8 18.9 21.4 22.2 17.3 22.2C15.4 22.2 13.6 21.5 12.2 20.3L10.9 23.4Z" fill="#25D366"/>
  <path d="M17.3 8.8C13.9 8.8 11.3 11.4 11.3 14.7C11.3 16.4 12 17.9 13.1 19L13.4 19.3L12.9 21.2L14.9 20.7L15.2 20.9C16.3 21.7 17.7 22.2 19 22.2C22.3 22.2 25 19.6 25 16.3C25 13 22.3 10.4 19 10.4C18.4 10.4 17.8 10.6 17.3 10.8" fill="#25D366"/>
  <path d="M19.7 18.7C19.4 19.2 18.7 19.5 18.2 19.6C17.9 19.6 17.6 19.7 16.5 19.3C15.3 18.9 14 18 12.8 16.4C11.6 14.8 11.3 13.6 11.3 13.1C11.3 12.6 11.7 12 12.1 11.6C12.3 11.4 12.6 11.3 12.8 11.3C13 11.3 13.2 11.3 13.4 11.7C13.6 12 14.1 13.4 14.2 13.6C14.3 13.8 14.3 14.1 14.2 14.3C14.1 14.5 14 14.6 13.8 14.8C13.6 15 13.4 15.2 13.2 15.4C13.5 16 14.3 17.2 15.4 17.9C16.6 18.6 17.2 18.8 17.5 18.9C17.8 19 18 19 18.2 18.8C18.4 18.6 18.6 18.3 18.8 18C19 17.7 19.2 17.6 19.4 17.7C19.6 17.8 20.9 18.4 21.1 18.6C21.3 18.7 21.5 18.8 21.5 19C21.5 19.1 21.1 19.6 20.7 19.9C20.4 20.2 20.1 20.4 19.7 18.7Z" fill="white"/>
</svg>
